# xmcd CD database file
#
# Track frame offsets:
#	150
#	23063
#	37774
#	54387
#	71182
#	90802
#	108072
#	127224
#	145963
#	165503
#	184731
#	200856
#	221832
#	243108
#
# Disc length: 3561 seconds
#
# Revision: 0
# Processed by: cddbd v1.5.2PL0 Copyright (c) Steve Scherf et al.
# Submitted via: CDex 1.70beta2
#
DISCID=c00de70e
DTITLE=Various Artist - Romântica FM - Música E Paixão Vol. 1 CD2
DYEAR=1900
DGENRE=Romantic
TTITLE0=Ana Carolina - Quem De Nós Dois
TTITLE1=Leonardo - Todas As Coisas Do Mundo
TTITLE2=Wanessa Camargo - O Amor Não Deixa
TTITLE3=Só Pra Contrariar - Quando É Amor
TTITLE4=Sara Tavares - Nnha Cretcheu (Meu Amor)
TTITLE5=Daniela Mercury - Como Vai Você
TTITLE6=Netinho - Indeciso
TTITLE7=Ivete Sangalo - Se Eu Não Te Amasse Tanto Assim
TTITLE8=Roupa Nova - Meu Universo É Você
TTITLE9=Gian and Giovani - Nunca Mais Vou Esquecer
TTITLE10=Lucas and Matheus - Caminhos Do Amor
TTITLE11=Rionegro and Solimões - Só Lembranças
TTITLE12=Daniel - Adoro Amar Você
TTITLE13=Lighthouse Family - Lost In Space
EXTD=
EXTT0=
EXTT1=
EXTT2=
EXTT3=
EXTT4=
EXTT5=
EXTT6=
EXTT7=
EXTT8=
EXTT9=
EXTT10=
EXTT11=
EXTT12=
EXTT13=
PLAYORDER=
